<svg width="512" height="512" viewBox="0 0 512 512" fill="none" xmlns="http://www.w3.org/2000/svg">
<path d="M502.635 457.498L403.539 358.36C477.687 259.271 457.469 118.834 358.381 44.6853C259.292 -29.4634 118.855 -9.24542 44.7064 89.8431C-29.4423 188.932 -9.22441 329.369 89.8641 403.518C169.46 463.08 278.784 463.08 358.381 403.518L457.519 502.656C469.978 515.114 490.177 515.114 502.634 502.656C515.093 490.197 515.093 469.998 502.634 457.541L502.635 457.498ZM224.949 384.383C136.883 384.383 65.4934 312.993 65.4934 224.928C65.4934 136.862 136.883 65.4723 224.949 65.4723C313.014 65.4723 384.404 136.862 384.404 224.928C384.31 312.953 312.975 384.289 224.949 384.383Z" fill="#757575"/>
</svg>
