<svg width="512" height="512" viewBox="0 0 512 512" fill="none" xmlns="http://www.w3.org/2000/svg">
<path d="M400.525 364.065L342.456 305.976C385.906 247.917 374.059 165.629 315.994 122.183C257.93 78.7363 175.635 90.5827 132.185 148.642C88.7347 206.702 100.582 288.99 158.647 332.436C205.289 367.336 269.351 367.336 315.994 332.436L374.088 390.525C381.388 397.825 393.225 397.825 400.525 390.525C407.825 383.225 407.825 371.39 400.525 364.09L400.525 364.065ZM237.805 321.224C186.2 321.224 144.366 279.394 144.366 227.794C144.366 176.193 186.2 134.363 237.805 134.363C289.41 134.363 331.243 176.193 331.243 227.794C331.188 279.371 289.387 321.169 237.805 321.224Z" fill="#757575"/>
</svg>
